<?xml version="1.0" encoding="UTF-8" standalone="no"?>
<svg
   xmlns:dc="http://purl.org/dc/elements/1.1/"
   xmlns:cc="http://creativecommons.org/ns#"
   xmlns:rdf="http://www.w3.org/1999/02/22-rdf-syntax-ns#"
   xmlns:svg="http://www.w3.org/2000/svg"
   xmlns="http://www.w3.org/2000/svg"
   version="1.1"
   id="svg10"
   viewBox="0 0 24 24">
  <defs />
  <path
     d="M 6.3262782,16.467986 C 6.1336567,16.361161 6.116576,16.341833 6.0102835,16.110422 L 5.897917,15.865788 5.97295,15.641594 c 0.097437,-0.291134 0.4350533,-0.952968 0.9149366,-1.793559 0.5295778,-0.927639 0.693187,-1.233485 0.6714605,-1.255212 -0.010224,-0.01022 -1.0026872,0.01263 -2.2054757,0.0508 -3.8324553,0.121596 -3.5465492,0.119171 -3.6732376,0.03115 -0.060034,-0.0417 -0.1374878,-0.114089 -0.1721199,-0.160852 l -0.062967,-0.08502 0.1039506,-0.315324 C 1.8629798,11.162658 2.4643465,10.050498 3.3738746,8.7395949 3.563313,8.4665576 4.0320416,7.796375 4.4154938,7.2503004 5.5038552,5.7003641 5.9318448,5.0377289 6.3703648,4.2236697 7.0375758,2.9850732 7.3891038,2.3667956 7.4907418,2.2531179 7.5647262,2.1703695 7.7683323,2.0646619 8.3759878,1.7935193 l 0.7891625,-0.3521334 0.1807289,0.042011 c 0.257266,0.059803 0.46199,0.1963381 0.5551067,0.3702118 0.069065,0.1289645 0.075786,0.1744467 0.063897,0.4323758 C 9.9432677,2.7549037 9.6954016,3.3579665 9.1553102,4.2556975 8.3286391,5.6297769 6.6429576,7.8310583 4.6302555,10.164833 l -0.1933509,0.224196 0.1016798,0.02169 c 0.055924,0.01193 0.9087814,0.04468 1.8952388,0.07278 0.9864574,0.0281 1.8698908,0.05438 1.9631855,0.05839 l 0.1696264,0.0073 0.6815716,-1.5693643 C 10.17761,6.8397913 10.469984,6.2255229 11.054659,5.1845048 12.188218,3.1661954 13.243776,2.0465487 14.257401,1.787307 c 0.540029,-0.1381164 0.904008,-0.016115 0.904008,0.3030122 0,0.2299316 -0.864366,2.2327299 -2.834915,6.5686999 -0.466557,1.0266076 -0.848287,1.8745349 -0.848287,1.8842809 0,0.02012 0.260409,0.0083 1.377198,-0.06235 0.431574,-0.02732 0.964839,-0.05104 1.18503,-0.05274 0.353414,-0.0026 0.416228,0.0052 0.535806,0.06726 0.177871,0.09237 0.232997,0.205439 0.232306,0.476478 -0.0022,0.867783 -0.485033,1.465891 -1.35293,1.675999 -0.438632,0.106189 -0.830746,0.109906 -1.875897,0.01779 -0.516665,-0.04554 -0.978916,-0.08279 -1.027223,-0.08279 -0.08283,0 -0.100772,0.02965 -0.315117,0.520452 -0.3820408,0.874821 -0.8404696,1.855698 -0.9574948,2.048702 -0.2763148,0.455713 -0.9962141,0.885818 -2.0962673,1.252418 -0.5961457,0.19867 -0.6115145,0.199807 -0.8573397,0.06347 z"
     style="fill:#de622c;stroke:#de622c;stroke-width:0.00089678" />
  <path
     d="m 11.659988,23.577987 c 0.01544,-0.06784 1.276755,-7.675166 1.276755,-7.700418 0,-0.0064 1.032032,-0.01156 2.293405,-0.01156 1.812662,0 2.293613,0.0085 2.294396,0.04038 5.46e-4,0.02221 -0.05282,0.356382 -0.11858,0.742609 l -0.119571,0.702232 -1.454947,0.0084 -1.454946,0.0084 -0.10453,0.629879 c -0.05749,0.346434 -0.113185,0.67712 -0.123764,0.734859 l -0.01924,0.10498 h 1.374892 1.374892 l -0.01648,0.07268 c -0.0091,0.03997 -0.05326,0.297981 -0.09822,0.573351 -0.04496,0.275371 -0.09699,0.576986 -0.115631,0.670256 l -0.0339,0.169583 H 15.24913 13.88374 l -0.137537,0.831763 c -0.07564,0.45747 -0.145183,0.871736 -0.154527,0.920592 l -0.01699,0.08883 h 1.509559 1.509558 l -0.01714,0.07268 c -0.0094,0.03997 -0.06466,0.374293 -0.122752,0.742934 l -0.105615,0.670256 h -2.352429 -2.352428 z"
     style="fill:#1e90ff;stroke:#1e90ff;stroke-width:0.00090444;fill-opacity:1;stroke-opacity:1" />
  <path
     d="m 17.382965,23.581949 c 0.01354,-0.02211 0.542419,-0.687738 1.175285,-1.479198 l 1.150667,-1.439019 -0.04449,-0.103845 c -0.02448,-0.05711 -0.313837,-0.685037 -0.643031,-1.395388 -0.329194,-0.71035 -0.598536,-1.299771 -0.598536,-1.309825 0,-0.01001 0.358184,-0.01828 0.795965,-0.01828 h 0.795964 l 0.364564,0.851788 c 0.200509,0.468483 0.373889,0.851158 0.385289,0.850387 0.0114,-7.7e-4 0.306491,-0.384075 0.655758,-0.851788 l 0.635033,-0.850387 h 0.836107 0.836107 l -0.248548,0.313393 c -0.136703,0.172366 -0.62016,0.777874 -1.074349,1.345571 -0.45419,0.567696 -0.84378,1.06097 -0.865759,1.096162 -0.03506,0.05616 0.04174,0.240563 0.62778,1.507116 0.367257,0.793722 0.674801,1.461463 0.683432,1.483869 0.01246,0.03236 -0.150559,0.03896 -0.792995,0.03215 l -0.808685,-0.0085 -0.38058,-0.898776 c -0.20932,-0.494329 -0.393084,-0.902197 -0.408364,-0.906375 -0.01529,-0.0042 -0.344797,0.403887 -0.732254,0.906812 l -0.704471,0.914411 h -0.832252 c -0.657504,0 -0.827084,-0.0084 -0.807633,-0.04018 z"
     style="fill:#1e90ff;stroke:#1e90ff;stroke-width:0.0009;stroke-opacity:1;fill-opacity:1" />
  <metadata
     id="metadata840">
    <rdf:RDF>
      <cc:Work
         rdf:about="">
        <dc:title></dc:title>
      </cc:Work>
    </rdf:RDF>
  </metadata>
</svg>
