<?xml version="1.0" encoding="UTF-8" standalone="no"?>
<svg
   xmlns:dc="http://purl.org/dc/elements/1.1/"
   xmlns:cc="http://creativecommons.org/ns#"
   xmlns:rdf="http://www.w3.org/1999/02/22-rdf-syntax-ns#"
   xmlns:svg="http://www.w3.org/2000/svg"
   xmlns="http://www.w3.org/2000/svg"
   version="1.1"
   id="svg10"
   viewBox="0 0 24 24">
  <defs />
  <path
     d="M 2.7938812,16.470026 C 2.3398128,16.318062 1.8404371,15.923496 1.7273268,15.627321 1.5951033,15.281098 1.7240476,15.015244 2.3089477,14.428107 2.6919421,14.043649 2.9611856,13.845892 3.2545629,13.73356 3.4377872,13.6634 3.448205,13.66305 4.2148953,13.70112 c 0.8390294,0.04166 1.7511988,0.0121 2.4673822,-0.07998 2.2353464,-0.287398 3.3641365,-1.105886 3.4488785,-2.500789 0.02535,-0.417145 -0.02949,-0.718205 -0.188763,-1.036424 C 9.4178583,9.0359416 7.9543322,8.531071 6.6414543,8.9452098 6.3317737,9.0428965 6.0736842,9.1694329 5.2563814,9.6242862 L 4.6507831,9.9613195 4.5534611,9.8920203 C 4.4152196,9.7935836 4.3602263,9.6664885 4.3602263,9.4454352 4.3602263,8.7268893 4.8989818,7.228417 5.8715828,5.2418127 6.7545182,3.4383558 7.486669,2.4198219 8.1265478,2.1048106 l 0.2063304,-0.1015761 2.9791488,0.019053 c 2.664775,0.017043 3.729629,0.04353 4.192947,0.1042985 0.141745,0.018591 0.153233,0.028302 0.270357,0.2285225 l 0.122322,0.2091062 -0.06874,0.1796256 C 15.557479,3.4531499 14.39509,4.674938 13.79821,4.8783149 13.593209,4.9481659 12.818137,4.9162579 11.61063,4.7882569 10.030999,4.6208086 9.0241876,4.6220449 8.2970838,4.7923269 L 8.0193384,4.8573702 7.5812675,5.8650598 C 7.3403284,6.419289 7.1458785,6.8754655 7.1491565,6.8787849 7.1524357,6.8821044 7.3146872,6.8210605 7.5097176,6.7431313 8.6223113,6.2985674 10.145946,6.1629467 11.154258,6.418726 c 1.005578,0.2550857 1.813934,0.8334258 2.164214,1.5483903 0.180355,0.3681283 0.225914,0.5881249 0.224816,1.085598 -8.05e-4,0.3642687 -0.01466,0.4873665 -0.08423,0.7482784 -0.230559,0.8646723 -0.672755,1.5539643 -1.571477,2.4496023 -0.756758,0.754163 -1.57466,1.383338 -2.7551106,2.119387 -1.8331404,1.14302 -3.3856038,1.798458 -4.8529804,2.048891 -0.4936499,0.08424 -1.3034011,0.112133 -1.4856058,0.05115 z"
     style="fill:#de622c;stroke:#de622c;stroke-width:0.000904282" />
  <path
     d="m 11.662096,23.597701 c 6.93e-4,-0.03109 0.288113,-1.779004 0.63871,-3.884253 l 0.63745,-3.827725 2.301393,-0.0083 2.301394,-0.0083 -0.01659,0.07289 c -0.0091,0.04009 -0.0604,0.341803 -0.113958,0.670471 -0.05355,0.328668 -0.104811,0.630283 -0.113904,0.670256 l -0.01653,0.07268 h -1.451487 -1.451488 l -0.0177,0.10498 c -0.115024,0.682027 -0.211333,1.287825 -0.211333,1.329317 0,0.04641 0.13581,0.05157 1.356663,0.05157 0.746164,0 1.357036,0.0109 1.357494,0.02423 4.58e-4,0.01332 -0.05323,0.347645 -0.119306,0.742934 l -0.120137,0.718708 h -1.365948 -1.365947 l -0.0166,0.07268 c -0.03524,0.15427 -0.275345,1.63805 -0.275345,1.701516 0,0.06681 0.0039,0.06699 1.485868,0.06699 1.287531,0 1.485869,0.0064 1.485869,0.04761 0,0.04978 -0.180546,1.195076 -0.212725,1.349431 l -0.01852,0.08883 h -2.339291 c -2.206842,0 -2.339219,-0.0032 -2.338029,-0.05653 z"
     style="fill:#1e90ff;stroke:#1e90ff;stroke-width:0.00090444;stroke-opacity:1;fill-opacity:1" />
  <path
     d="m 17.384148,23.598248 c 0.127316,-0.147526 2.254803,-2.819169 2.290564,-2.876431 0.03596,-0.05756 -0.03378,-0.226221 -0.597632,-1.445594 -0.35108,-0.759235 -0.645937,-1.400258 -0.655238,-1.424495 -0.01401,-0.0365 0.12157,-0.04407 0.789122,-0.04407 h 0.806032 l 0.368353,0.871056 c 0.202594,0.47908 0.377947,0.871543 0.389675,0.87214 0.01173,5.96e-4 0.313048,-0.391379 0.669603,-0.871056 l 0.64828,-0.87214 h 0.843273 0.843272 l -0.171906,0.218035 c -0.09455,0.119919 -0.604879,0.75965 -1.134066,1.421624 l -0.96216,1.20359 0.682597,1.477433 c 0.375429,0.812589 0.689133,1.488335 0.697122,1.50166 0.008,0.01332 -0.35336,0.02398 -0.802995,0.02369 l -0.817519,-5.39e-4 -0.386403,-0.920458 C 20.6716,22.226441 20.485089,21.816445 20.469654,21.82159 c -0.01544,0.0051 -0.343976,0.41596 -0.730089,0.912921 l -0.702024,0.903567 -0.851325,0.0086 c -0.811367,0.0082 -0.849012,0.0059 -0.802068,-0.04845 z"
     style="fill:#1e90ff;stroke:#1e90ff;stroke-width:0.00090444;fill-opacity:1;stroke-opacity:1" />
  <metadata
     id="metadata840">
    <rdf:RDF>
      <cc:Work
         rdf:about="">
        <dc:title></dc:title>
      </cc:Work>
    </rdf:RDF>
  </metadata>
</svg>
