<?xml version="1.0" encoding="UTF-8" standalone="no"?>
<svg
   xmlns:svg="http://www.w3.org/2000/svg"
   xmlns="http://www.w3.org/2000/svg"
   xmlns:sodipodi="http://sodipodi.sourceforge.net/DTD/sodipodi-0.dtd"
   xmlns:inkscape="http://www.inkscape.org/namespaces/inkscape"
   version="1.1"
   id="svg10"
   viewBox="0 0 24 24"
   sodipodi:docname="_mq4.svg"
   inkscape:version="1.0 (4035a4fb49, 2020-05-01)">
  <defs
     id="defs2" />
  <sodipodi:namedview
     inkscape:current-layer="svg10"
     inkscape:window-maximized="1"
     inkscape:window-y="0"
     inkscape:window-x="-8"
     inkscape:window-height="975"
     inkscape:window-width="1280"
     inkscape:cy="12.13776"
     inkscape:cx="12.936743"
     inkscape:zoom="30.958333" />
  <path
     style="fill:#de622c;stroke:#de622c;stroke-width:0.00089345;fill-opacity:1;stroke-opacity:1"
     d="m 10.3426,19.555662 c -0.212917,-0.119596 -0.222499,-0.13045 -0.330412,-0.374269 l -0.1111355,-0.251101 0.070954,-0.221446 c 0.089963,-0.280769 0.4797985,-1.03963 1.0172925,-1.980274 0.484316,-0.847578 0.66309,-1.18566 0.639462,-1.209289 -0.01535,-0.01535 -2.3825073,0.05321 -4.9023787,0.14202 -1.1555119,0.04072 -1.182291,0.03754 -1.3617042,-0.161037 L 5.2527545,15.37638 5.3247815,15.14307 c 0.1237742,-0.400928 0.2433016,-0.694645 0.49749,-1.222489 0.4490795,-0.932552 0.938143,-1.71204 2.1421617,-3.41426 C 9.483504,8.358685 9.8723748,7.7647112 10.387743,6.8048787 10.855885,5.9330018 11.316525,5.107218 11.472503,4.8602431 L 11.596712,4.6635724 12.435426,4.286946 c 0.784178,-0.352137 0.848566,-0.3754658 0.990249,-0.3587807 0.333917,0.039323 0.620409,0.2524252 0.694338,0.5164703 0.284648,1.0166634 -1.389472,3.6548655 -5.0683735,7.9871204 -0.3627665,0.427192 -0.6643616,0.789758 -0.6702114,0.805702 -0.00585,0.01594 0.088527,0.029 0.2097268,0.029 0.1211999,0 1.0868538,0.02919 2.1458981,0.06486 1.059044,0.03567 1.935088,0.05362 1.946764,0.03989 0.01168,-0.01375 0.334056,-0.750107 0.7164,-1.63638 0.723206,-1.676392 1.480093,-3.2586459 1.938524,-4.0524402 1.349486,-2.3366947 2.56146,-3.4780788 3.693182,-3.4780788 0.535748,0 0.627123,0.2221617 0.364648,0.8865725 -0.362439,0.9174493 -1.396505,3.2589146 -2.835535,6.4205845 -0.451312,0.991571 -0.828655,1.823046 -0.83854,1.847723 -0.02032,0.05073 0.411867,0.03825 1.600719,-0.04622 0.35285,-0.02507 0.828759,-0.04579 1.057577,-0.04605 0.368533,-4.12e-4 0.432288,0.0077 0.558407,0.07133 0.186328,0.09396 0.25412,0.228381 0.253452,0.502566 -0.002,0.868435 -0.479739,1.483518 -1.335651,1.720037 -0.48859,0.135015 -0.788522,0.143405 -1.889615,0.05286 -0.551138,-0.04532 -1.067755,-0.09042 -1.148037,-0.100234 l -0.145967,-0.01784 -0.330057,0.744108 c -0.419702,0.946208 -0.781664,1.715646 -0.913647,1.942171 -0.277968,0.477084 -0.994915,0.908754 -2.166411,1.304383 -0.315565,0.106569 -0.602473,0.193488 -0.637572,0.193152 -0.0351,-3.35e-4 -0.162493,-0.05604 -0.283094,-0.123781 z" />
</svg>
