<?xml version="1.0" encoding="UTF-8" standalone="no"?>
<svg
   xmlns:dc="http://purl.org/dc/elements/1.1/"
   xmlns:cc="http://creativecommons.org/ns#"
   xmlns:rdf="http://www.w3.org/1999/02/22-rdf-syntax-ns#"
   xmlns:svg="http://www.w3.org/2000/svg"
   xmlns="http://www.w3.org/2000/svg"
   version="1.1"
   id="svg10"
   viewBox="0 0 24 24">
  <defs />
  <path
     d="M 6.7126995,19.762556 C 6.2690389,19.631557 5.7418339,19.236098 5.5775985,18.91111 5.4570904,18.67265 5.4552466,18.558219 5.5682629,18.331738 5.7558952,17.955729 6.426744,17.27504 6.8755522,17.005276 c 0.3287505,-0.197603 0.5574144,-0.243305 0.9952434,-0.198917 0.4532684,0.04595 1.6870643,0.04728 2.2634404,0.0024 2.804648,-0.218205 4.20373,-1.110632 4.286808,-2.734411 0.04765,-0.931342 -0.388769,-1.645061 -1.275666,-2.086215 -0.503873,-0.250634 -0.739379,-0.301909 -1.400533,-0.304927 -0.846282,-0.0039 -1.044549,0.06141 -2.3125068,0.761332 -0.7392294,0.408079 -0.7860759,0.429079 -0.8623859,0.38657 C 8.5255707,12.806383 8.4559516,12.736728 8.4152424,12.676324 8.1136973,12.228881 8.6772623,10.455681 9.9480831,7.853417 10.994793,5.710066 11.905456,4.5735723 12.64936,4.4822656 c 0.230471,-0.028287 6.091031,0.041851 6.765845,0.080974 0.865474,0.050175 0.808513,0.033161 0.960758,0.2869993 0.07161,0.1194054 0.125627,0.2393778 0.120026,0.2666055 -0.0057,0.027228 -0.05194,0.1400488 -0.102967,0.2507136 -0.17615,0.3819912 -0.513994,0.8278073 -1.003712,1.3244925 -0.367468,0.372695 -0.62875,0.5874717 -0.902366,0.7417542 l -0.195423,0.1101924 -0.635125,-0.00321 C 17.1671,7.538308 16.752049,7.509236 15.848731,7.4141664 14.1301,7.2332889 13.325114,7.2379564 12.474686,7.4337302 l -0.279847,0.064422 -0.442826,1.016533 c -0.243554,0.5590933 -0.452474,1.0416754 -0.464267,1.0724047 -0.01703,0.044369 0.04458,0.028794 0.299257,-0.075657 0.444269,-0.1822103 1.046814,-0.3429526 1.588926,-0.4238813 0.609155,-0.090937 1.520886,-0.098255 1.988822,-0.015965 1.063471,0.1870227 2.000269,0.7384816 2.480192,1.4600004 0.524174,0.788043 0.522716,1.889585 -0.004,2.972816 -0.566757,1.165729 -1.77001,2.368758 -3.591144,3.590476 -2.566833,1.721975 -4.8426562,2.632967 -6.7346144,2.695807 -0.3235385,0.01075 -0.4985601,0.0026 -0.6025547,-0.02813 z"
     style="fill:#de622c;stroke:#de622c;stroke-width:0.00091197;fill-opacity:1;stroke-opacity:1" />
  <metadata
     id="metadata833">
    <rdf:RDF>
      <cc:Work
         rdf:about="">
        <dc:title></dc:title>
      </cc:Work>
    </rdf:RDF>
  </metadata>
</svg>
