<?xml version="1.0" encoding="UTF-8"?>
<svg width="16" height="16" version="1.1" viewBox="0 0 16 16" xmlns="http://www.w3.org/2000/svg" xmlns:cc="http://creativecommons.org/ns#" xmlns:dc="http://purl.org/dc/elements/1.1/" xmlns:rdf="http://www.w3.org/1999/02/22-rdf-syntax-ns#"><metadata><rdf:RDF><cc:Work rdf:about=""><dc:format>image/svg+xml</dc:format><dc:type rdf:resource="http://purl.org/dc/dcmitype/StillImage"/><dc:title/></cc:Work></rdf:RDF></metadata><path d="m5.7317 15.253c-.31642-.42984-.69664-.94665-.84493-1.1485-.14829-.20182-.65684-.8929-1.1301-1.5357-.47326-.64283-1.0846-1.4746-1.3586-1.8483-.27399-.37374-.6074-.8263-.7409-1.0057-.85668-1.1511-1.0568-1.4367-1.029-1.4683.042201-.047908.65346-.7085.8752-.94584l.19431-.20798.088569.062669c.048713.034468.4264.29858.8393.58692.4129.28834.82417.57613.91393.63953.08976.063404.26602.18616.39168.27279.12567.086629.29213.20337.36992.25942.077793.056053.27853.19704.44609.3133.16755.11626.42349.29455.56876.39621.3982.27866.3557.26831.46942.11442.053575-.0725.4437-.60885.86695-1.1919 2.2371-3.0816 2.8656-3.8643 4.2639-5.3103.8735-.90325 2.3654-2.2514 3.3468-3.0244l.20242-.15943h1.5025l-.23558.23603c-.90777.90947-1.7762 1.9626-2.6293 3.1888-.2813.40427-.41948.6067-.50036.73299-.035907.056068-.21803.33913-.40471.62902-.33741.52394-.816 1.3069-1.2277 2.0084-.19398.33055-1.0119 1.8486-1.2105 2.2465-.043635.087463-.14525.28745-.2258.44442-.24396.4754-1.1121 2.2108-1.4175 2.8336-.067814.13828-.14531.29424-.17221.34656-.045285.08808-.63781 1.299-.77142 1.5765-.032389.06728-.18384.37918-.33657.69312-.15272.31394-.32647.67184-.3861.79532-.059632.12349-.11622.23054-.12576.23791-.00954.0074-.27622-.3383-.59264-.76815z" fill="#00979c" stroke="#00979c" stroke-width=".00018384"/><path d="m1.7343 15.965c-.64963-.10474-1.2119-.56177-1.5083-1.226-.11852-.26561-.1715-.46944-.20263-.77961-.029127-.29019-.029127-11.585 0-11.875.030151-.30039.08345-.50966.19598-.76951.27976-.646.79639-1.0799 1.466-1.2314.15476-.035.53043-.038113 5.4008-.04475 4.7216-.0064344 5.2573-.0037104 5.4679.027809.25857.038699.4884.11091.66666.20946.15936.088106.36366.2365.3527.25619-.0049.008828-.17518.14054-.37836.2927l-.36943.27664-.28978-.10112h-10.704l-.13698.048213c-.36892.12985-.63905.42727-.78548.86479-.035082.10483-.036556.32013-.041442 6.0528-.00564 6.6159-.017425 6.0452.13182 6.3836.099777.22621.2989.44437.51277.5618.27871.15302-.10544.14385 5.7597.13747l5.2829-.0058.12082-.04612c.39721-.15162.69287-.49239.78882-.90915.03896-.16925.03942-.23108.04001-5.4012l.000595-5.23.85002-1.0034.0057 5.6645c.0041 4.0781-.000492 5.7254-.01628 5.8819-.0917.90884-.68935 1.6755-1.4961 1.9191l-.19568.0591-5.4008.0029c-2.9795.0016-5.4534-.0056-5.5182-.01601z" fill-opacity="0" stroke-opacity="0"/></svg>
