<?xml version="1.0" encoding="UTF-8" standalone="no"?>
<svg
   xmlns:dc="http://purl.org/dc/elements/1.1/"
   xmlns:cc="http://creativecommons.org/ns#"
   xmlns:rdf="http://www.w3.org/1999/02/22-rdf-syntax-ns#"
   xmlns:svg="http://www.w3.org/2000/svg"
   xmlns="http://www.w3.org/2000/svg"
   xmlns:sodipodi="http://sodipodi.sourceforge.net/DTD/sodipodi-0.dtd"
   xmlns:inkscape="http://www.inkscape.org/namespaces/inkscape"
   inkscape:version="1.0 (4035a4fb49, 2020-05-01)"
   sodipodi:docname="compile_light.svg"
   id="svg4"
   viewBox="0 0 16 16"
   version="1.1"
   height="16mm"
   width="16mm">
  <metadata
     id="metadata10">
    <rdf:RDF>
      <cc:Work
         rdf:about="">
        <dc:format>image/svg+xml</dc:format>
        <dc:type
           rdf:resource="http://purl.org/dc/dcmitype/StillImage" />
        <dc:title></dc:title>
      </cc:Work>
    </rdf:RDF>
  </metadata>
  <defs
     id="defs8" />
  <sodipodi:namedview
     inkscape:current-layer="svg4"
     inkscape:window-maximized="1"
     inkscape:window-y="0"
     inkscape:window-x="-8"
     inkscape:cy="30.23622"
     inkscape:cx="30.23622"
     inkscape:zoom="12.154297"
     showgrid="false"
     id="namedview6"
     inkscape:window-height="975"
     inkscape:window-width="1280"
     inkscape:pageshadow="2"
     inkscape:pageopacity="0"
     guidetolerance="10"
     gridtolerance="10"
     objecttolerance="10"
     borderopacity="1"
     bordercolor="#666666"
     pagecolor="#ffffff" />
  <path
     style="stroke:#00979c;stroke-width:1.2170833;stroke-miterlimit:4.0999999;stroke-dasharray:none;stroke-opacity:1"
     id="path2"
     stroke-width="2.0537"
     stroke="#00b7b7"
     fill="none"
     d="M 2.1447142,14.170445 C 1.758741,14.036637 1.6086176,13.706569 1.7920976,13.39515 1.83276,13.326125 2.1458304,12.952594 2.4878055,12.56503 2.8297807,12.177476 3.4108984,11.516892 3.7791886,11.097004 4.1474602,10.677154 4.6819196,10.069423 4.9668555,9.746554 6.2561922,8.2853182 6.3278168,8.1974152 6.3278168,8.079281 6.3278168,7.9555099 6.2451983,7.8162977 6.0540153,7.6178788 5.93683,7.4962657 5.6993896,7.2326033 5.5602704,7.0696247 5.5286086,7.0325315 5.3044774,6.780689 5.0622093,6.5099664 4.8199413,6.2392531 4.5179085,5.8988407 4.3910399,5.7535078 4.2641712,5.6081749 4.1501485,5.482655 4.1376374,5.4745903 4.1251292,5.4665211 4.0349537,5.367423 3.9372372,5.2543863 3.7435809,5.0303407 3.3181305,4.5508555 2.7779412,3.9477481 2.5879777,3.7356833 2.4066464,3.5321484 2.3749827,3.4954338 2.3433005,3.4587359 2.265611,3.371765 2.2022836,3.3021868 2.1389591,3.2326011 2.0698803,3.1552167 2.0487743,3.1302225 2.0276683,3.1052181 1.9628545,3.0324967 1.9047437,2.9686113 1.6871722,2.7293663 1.6547364,2.4335751 1.8249027,2.2404769 1.9455204,2.1035902 2.2116665,1.9826468 2.3941605,1.9818003 2.534889,1.9811401 2.7995932,2.0789863 3.1808968,2.2726336 3.3392059,2.3530256 3.5335412,2.4490442 3.6127655,2.48601 3.6919835,2.522985 4.050234,2.6985584 4.4088874,2.8761876 4.7675409,3.0538167 5.091275,3.2127676 5.128343,3.229418 c 0.037059,0.016638 0.1710062,0.080938 0.2976516,0.1428679 0.3121812,0.1526442 0.4611883,0.2253386 0.7099863,0.346347 0.2021676,0.09833 0.3663461,0.1792942 1.266454,0.6245205 0.4352174,0.2152646 0.7759368,0.3819175 0.9473988,0.4633649 0.059369,0.028194 0.1856659,0.090689 0.2806477,0.1388681 0.094982,0.048183 0.2079626,0.099707 0.2510304,0.1144971 0.043102,0.01479 0.1013256,0.048085 0.129436,0.073991 0.028083,0.025929 0.065689,0.047096 0.083529,0.047096 0.017863,0 0.2531792,0.1096881 0.5229902,0.2437378 0.498498,0.247691 1.066091,0.5280504 1.362822,0.6731786 0.09014,0.044091 0.20107,0.092816 0.246519,0.1082835 0.04544,0.015484 0.0941,0.042335 0.108144,0.059732 0.01413,0.017378 0.09577,0.061127 0.181629,0.097233 0.198028,0.083267 0.214623,0.091165 0.606447,0.2887683 0.179303,0.090422 0.368095,0.1813871 0.419534,0.2021489 0.05144,0.020753 0.111874,0.050004 0.134329,0.064978 0.02245,0.014975 0.178959,0.094405 0.347807,0.1765036 0.864333,0.42026 0.87944,0.4297944 1.032698,0.6514867 0.140458,0.2031628 0.138198,0.4393753 -0.006,0.6432451 -0.0925,0.1306639 -0.252983,0.2845731 -0.29674,0.2845731 -0.0082,0 -0.125073,0.05615 -0.259532,0.1247851 -0.134478,0.068629 -0.273253,0.138003 -0.308349,0.1541418 -0.0351,0.016129 -0.154997,0.076658 -0.266406,0.1344683 -0.111521,0.057805 -0.327874,0.166811 -0.48089,0.2422215 -0.153035,0.075415 -0.394819,0.19454 -0.537278,0.2647228 -0.142486,0.070177 -0.415516,0.2069767 -0.606754,0.3039769 -0.191228,0.09701 -0.363937,0.1816195 -0.383777,0.1880195 -0.01986,0.0065 -0.217414,0.102712 -0.439032,0.214018 -0.221711,0.111306 -0.575751,0.288265 -0.7868298,0.393218 -0.2110787,0.104972 -0.5219204,0.259635 -0.6907871,0.343705 -0.2881916,0.143482 -0.4864616,0.241608 -1.3144519,0.650482 -0.1846799,0.0912 -0.5516679,0.273969 -0.8155163,0.406131 -0.2638485,0.132161 -0.6006053,0.299819 -0.7483567,0.372559 -0.3928286,0.193378 -1.2580823,0.621823 -1.9764682,0.978654 -1.6589013,0.824092 -1.4846766,0.748979 -1.7315491,0.746496 -0.1136041,-0.0012 -0.2324546,-0.011 -0.2641089,-0.02204 z" />
</svg>
