<svg width="16mm" height="16mm" version="1.1" viewBox="0 0 16 16" xmlns="http://www.w3.org/2000/svg"><path d="m2.1447 14.17c-.38597-.13381-.5361-.46388-.35262-.7753.040662-.069025.35373-.44256.69571-.83012.34198-.38755.92309-1.0481 1.2914-1.468.36827-.41985.90273-1.0276 1.1877-1.3504 1.2893-1.4612 1.361-1.5491 1.361-1.6673 0-.12377-.082618-.26298-.2738-.4614-.11719-.12161-.35463-.38528-.49374-.54825-.031662-.037093-.25579-.28894-.49806-.55966-.24227-.27071-.5443-.61113-.67117-.75646-.12687-.14533-.24089-.27085-.2534-.27892-.012508-.0080692-.10268-.10717-.2004-.2202-.19366-.22405-.61911-.70353-1.1593-1.3066-.18996-.21206-.37129-.4156-.40296-.45231-.031682-.036698-.10937-.12367-.1727-.19325-.063324-.069586-.1324-.14697-.15351-.17196-.021106-.025004-.08592-.097726-.14403-.16161-.21757-.23924-.25001-.53504-.079841-.72813.12062-.13689.38676-.25783.56926-.25868.14073-.0006602.40543.097186.78674.29083.15831.080392.35264.17641.43187.21338.079218.036975.43747.21255.79612.39018.35865.17763.68239.33658.71946.35323.037059.016638.17101.080938.29765.14287.31218.15264.46119.22534.70999.34635.20217.09833.36635.17929 1.2665.62452.43522.21526.77594.38192.9474.46336.059369.028194.18567.090689.28065.13887.094982.048183.20796.099707.25103.1145.043102.01479.10133.048085.12944.073991.028083.025929.065689.047096.083529.047096.017863 0 .25318.10969.52299.24374.4985.24769 1.0661.52805 1.3628.67318.09014.044091.20107.092816.24652.10828.04544.015484.0941.042335.10814.059732.01413.017378.09577.061127.18163.097233.19803.083267.21462.091165.60645.28877.1793.090422.3681.18139.41953.20215.05144.020753.11187.050004.13433.064978.02245.014975.17896.094405.34781.1765.86433.42026.87944.42979 1.0327.65149.14046.20316.1382.43938-.006.64325-.0925.13066-.25298.28457-.29674.28457-.0082 0-.12507.05615-.25953.12479-.13448.068629-.27325.138-.30835.15414-.0351.016129-.155.076658-.26641.13447-.11152.057805-.32787.16681-.48089.24222-.15304.075415-.39482.19454-.53728.26472-.14249.070177-.41552.20698-.60675.30398-.19123.09701-.36394.18162-.38378.18802-.01986.0065-.21741.10271-.43903.21402-.22171.11131-.57575.28826-.78683.39322-.21108.10497-.52192.25964-.69079.3437-.28819.14348-.48646.24161-1.3145.65048-.18468.0912-.55167.27397-.81552.40613-.26385.13216-.60061.29982-.74836.37256-.39283.19338-1.2581.62182-1.9765.97865-1.6589.82409-1.4847.74898-1.7315.7465-.1136-.0012-.23245-.011-.26411-.02204z" fill="none" stroke="#00b7b7" stroke-miterlimit="4.1" stroke-width="1.2171"/></svg>
