<?xml version="1.0" encoding="UTF-8"?>
<svg width="16" height="16" version="1.1" viewBox="0 0 16 16" xmlns="http://www.w3.org/2000/svg" xmlns:cc="http://creativecommons.org/ns#" xmlns:dc="http://purl.org/dc/elements/1.1/" xmlns:rdf="http://www.w3.org/1999/02/22-rdf-syntax-ns#"><metadata><rdf:RDF><cc:Work rdf:about=""><dc:format>image/svg+xml</dc:format><dc:type rdf:resource="http://purl.org/dc/dcmitype/StillImage"/><dc:title/></cc:Work></rdf:RDF></metadata><g><path d="m3.9484 13.114c-.3283-.10942-.45599-.37934-.29993-.634.034586-.056439.30087-.36191.59175-.67884.29088-.31693.78516-.85714 1.0984-1.2005.31324-.34334.76784-.84034 1.0102-1.1044 1.0967-1.195 1.1576-1.2668 1.1576-1.3634 0-.10121-.070274-.21506-.23289-.37731-.099675-.099448-.30164-.31506-.41997-.44834-.026931-.030334-.21757-.23628-.42364-.45767-.20607-.22138-.46297-.49975-.57088-.6186-.10791-.11885-.2049-.22149-.21554-.22809-.010639-.0066028-.087341-.087635-.17045-.18007-.16472-.18321-.5266-.57532-.98611-1.0685-.16158-.17342-.31582-.33986-.34275-.36988-.02693-.030016-.093033-.10113-.14689-.15803-.053861-.056903-.11262-.12018-.13057-.14062-.017954-.020438-.073082-.079911-.12251-.13216-.18506-.19564-.21265-.43753-.06791-.59544.1026-.11194.32897-.21084.4842-.21154.1197-.00054.34485.079479.66918.23783.13465.06574.29995.14426.36734.17449.067383.030229.3721.17381.67716.31907s.58043.27524.61195.28886c.031523.013615.14545.066187.25317.11683.26553.12483.39228.18427.6039.28323.17196.080408.31161.14662 1.0772.51071.37019.17604.65999.31231.80587.37892.050497.023058.15792.074162.23871.11356.08079.039402.17688.081534.21352.09363.036645.012096.086184.039322.11009.060506.023901.021184.055874.038515.071048.038515.015178 0 .21535.089696.44484.19932.42401.20255.90681.43182 1.1592.5505.07667.03605.17103.075899.20968.088554.03865.012656.08004.034636.09198.048845.01201.014209.08146.049988.15449.079512.16843.068091.18255.074552.51583.23614.15251.073942.31309.14833.35684.16531.04375.016979.09516.04089.11425.053135.01909.012243.15222.077196.29584.14434.73518.34367.74803.35147.87839.53276.11947.16614.11755.3593-.0051.52602-.07868.10685-.21518.23271-.2524.23271-.0069 0-.10638.045919-.22076.10204-.11438.056121-.23242.11285-.26228.12605-.02987.013202-.13184.062686-.2266.10996-.09486.047272-.27888.13641-.40904.19808-.13017.061672-.33582.15909-.457.21648-.12119.05739-.35343.16925-.51609.24858-.16266.079328-.30956.14852-.32643.15376-.01688.00524-.18492.083997-.37343.17502-.18855.091023-.48968.23573-.66922.32156-.17954.08584-.44394.21232-.58757.28107-.24513.11734-.41377.19758-1.118.53194-.15709.07459-.46924.22404-.69366.33212-.22442.10808-.51086.24518-.63654.30466-.33413.15814-1.0701.5085-1.6811.80034-1.411.67391-1.2628.61248-1.4728.61046-.096626-.000929-.19772-.009-.22465-.01801z" fill="#00b7b7" stroke="#00b7b7" stroke-width=".028"/><path d="m7.3688 15.965c-.00197-.0019-.07143-.0085-.15434-.01466-.48978-.03639-1.2374-.20459-1.8645-.41949-1.3126-.44979-2.5575-1.3189-3.4911-2.4374-.44478-.53285-.92606-1.3078-1.1776-1.8962-.29236-.68387-.53271-1.4938-.57491-1.9372-.0050728-.053301-.014538-.13083-.021035-.17229-.065192-.41602-.074641-1.3228-.020758-1.9921.02018-.25063.094258-.69214.15899-.94757.2811-1.1093.81597-2.2066 1.4801-3.0365.24093-.30107 1.0111-1.084 1.2794-1.3005 1.0695-.8632 2.3608-1.4453 3.7041-1.6696.18344-.03064.41105-.060638.50581-.066661.21361-.013578 1.4898-.013177 1.6367.00051497.24665.022992.31395.031949.5707.07595 1.2053.20657 2.6355.85699 3.5968 1.6358.27255.22081.79328.72527 1.0505 1.0177.64633.73472 1.2134 1.7232 1.5468 2.6961.12502.36489.26808.93448.3005 1.1965.0051.041457.01952.14321.03198.22613.03724.24792.04221.37756.04215 1.0983-8.6e-5.88909-.0018.91028-.12128 1.529-.13743.71151-.34827 1.3171-.70968 2.0383-.60318 1.2037-1.5529 2.2806-2.6688 3.026-.93068.62171-1.8467 1.0011-2.9612 1.2265-.29575.05981-.28525.0581-.59223.09627-.16741.02083-1.5287.04466-1.547.0271zm1.3962-.42228c.047378-.0067.13944-.01791.20459-.02498.83486-.09056 1.7094-.3612 2.527-.78206.77835-.40065 1.292-.78589 1.964-1.4731.64298-.65749.966-1.1183 1.3792-1.9674.31768-.65282.48747-1.1597.62109-1.8542.08426-.43797.09795-.66133.09943-1.6238.000972-.63377-.002588-.69998-.054761-1.0068-.22309-1.3134-.77083-2.5623-1.5271-3.4818-.76695-.93248-1.5891-1.6066-2.5438-2.0858-.58307-.29264-1.599-.62739-2.1098-.69516-.059224-.0078582-.13191-.01775-.16152-.021981-.53147-.075945-1.5371-.085742-2.1751-.02119-.50013.050599-1.2466.24715-1.8413.48487-.62855.25122-1.408.70389-1.9057 1.1067-.37071.30005-1.0549 1.0091-1.3371 1.3857-.52919.70619-.97967 1.6117-1.2032 2.4185-.068224.2463-.18838.80599-.20458.95292-.0055635.05047-.019106.14506-.030093.21021-.028347.16807-.035174.34858-.03543.93681-.00021622.49647.020432.98668.043106 1.0234.005945.00962.015833.06796.021973.12964.036159.36326.21802 1.0664.3987 1.5416.27532.72402.67207 1.4186 1.1548 2.0218.23743.29665.93716.99836 1.2279 1.2314.76834.61578 1.8678 1.1594 2.8387 1.4037.17371.0437.59699.12645.65684.12841.017768.000579.095295.01091.17229.02295.07699.01204.2173.0278.31181.03503.094503.0072.17602.01731.18114.02244.013143.01315 1.2223-.003 1.3268-.01777z" fill="#c5c5c5" stroke="#c5c5c5" stroke-width=".022"/></g></svg>
