<?xml version="1.0" encoding="UTF-8"?>
<svg width="16" height="16" version="1.1" viewBox="0 0 16 16" xmlns="http://www.w3.org/2000/svg" xmlns:cc="http://creativecommons.org/ns#" xmlns:dc="http://purl.org/dc/elements/1.1/" xmlns:rdf="http://www.w3.org/1999/02/22-rdf-syntax-ns#">
 <metadata>
  <rdf:RDF>
   <cc:Work rdf:about="">
    <dc:format>image/svg+xml</dc:format>
    <dc:type rdf:resource="http://purl.org/dc/dcmitype/StillImage"/>
    <dc:title/>
   </cc:Work>
  </rdf:RDF>
 </metadata>
 <g>
  <path d="m3.9484 13.114c-0.3283-0.10942-0.45599-0.37934-0.29993-0.634 0.034586-0.056439 0.30087-0.36191 0.59175-0.67884 0.29088-0.31693 0.78516-0.85714 1.0984-1.2005 0.31324-0.34334 0.76784-0.84034 1.0102-1.1044 1.0967-1.195 1.1576-1.2668 1.1576-1.3634 0-0.10121-0.070274-0.21506-0.23289-0.37731-0.099675-0.099448-0.30164-0.31506-0.41997-0.44834-0.026931-0.030334-0.21757-0.23628-0.42364-0.45767-0.20607-0.22138-0.46297-0.49975-0.57088-0.6186-0.10791-0.11885-0.2049-0.22149-0.21554-0.22809-0.010639-0.0066028-0.087341-0.087635-0.17045-0.18007-0.16472-0.18321-0.5266-0.57532-0.98611-1.0685-0.16158-0.17342-0.31582-0.33986-0.34275-0.36988-0.02693-0.030016-0.093033-0.10113-0.14689-0.15803-0.053861-0.056903-0.11262-0.12018-0.13057-0.14062-0.017954-0.020438-0.073082-0.079911-0.12251-0.13216-0.18506-0.19564-0.21265-0.43753-0.06791-0.59544 0.1026-0.11194 0.32897-0.21084 0.4842-0.21154 0.1197-5.4e-4 0.34485 0.079479 0.66918 0.23783 0.13465 0.06574 0.29995 0.14426 0.36734 0.17449 0.067383 0.030229 0.3721 0.17381 0.67716 0.31907s0.58043 0.27524 0.61195 0.28886c0.031523 0.013615 0.14545 0.066187 0.25317 0.11683 0.26553 0.12483 0.39228 0.18427 0.6039 0.28323 0.17196 0.080408 0.31161 0.14662 1.0772 0.51071 0.37019 0.17604 0.65999 0.31231 0.80587 0.37892 0.050497 0.023058 0.15792 0.074162 0.23871 0.11356 0.08079 0.039402 0.17688 0.081534 0.21352 0.09363 0.036645 0.012096 0.086184 0.039322 0.11009 0.060506 0.023901 0.021184 0.055874 0.038515 0.071048 0.038515 0.015178 0 0.21535 0.089696 0.44484 0.19932 0.42401 0.20255 0.90681 0.43182 1.1592 0.5505 0.07667 0.03605 0.17103 0.075899 0.20968 0.088554 0.03865 0.012656 0.08004 0.034636 0.09198 0.048845 0.01201 0.014209 0.08146 0.049988 0.15449 0.079512 0.16843 0.068091 0.18255 0.074552 0.51583 0.23614 0.15251 0.073942 0.31309 0.14833 0.35684 0.16531 0.04375 0.016979 0.09516 0.04089 0.11425 0.053135 0.01909 0.012243 0.15222 0.077196 0.29584 0.14434 0.73518 0.34367 0.74803 0.35147 0.87839 0.53276 0.11947 0.16614 0.11755 0.3593-0.0051 0.52602-0.07868 0.10685-0.21518 0.23271-0.2524 0.23271-0.0069 0-0.10638 0.045919-0.22076 0.10204-0.11438 0.056121-0.23242 0.11285-0.26228 0.12605-0.02987 0.013202-0.13184 0.062686-0.2266 0.10996-0.09486 0.047272-0.27888 0.13641-0.40904 0.19808-0.13017 0.061672-0.33582 0.15909-0.457 0.21648-0.12119 0.05739-0.35343 0.16925-0.51609 0.24858-0.16266 0.079328-0.30956 0.14852-0.32643 0.15376-0.01688 0.00524-0.18492 0.083997-0.37343 0.17502-0.18855 0.091023-0.48968 0.23573-0.66922 0.32156-0.17954 0.08584-0.44394 0.21232-0.58757 0.28107-0.24513 0.11734-0.41377 0.19758-1.118 0.53194-0.15709 0.07459-0.46924 0.22404-0.69366 0.33212-0.22442 0.10808-0.51086 0.24518-0.63654 0.30466-0.33413 0.15814-1.0701 0.5085-1.6811 0.80034-1.411 0.67391-1.2628 0.61248-1.4728 0.61046-0.096626-9.29e-4 -0.19772-9e-3 -0.22465-0.01801z" fill="#00979c"/>
  <path d="m7.3688 15.965c-0.00197-0.0019-0.07143-0.0085-0.15434-0.01466-0.48978-0.03639-1.2374-0.20459-1.8645-0.41949-1.3126-0.44979-2.5575-1.3189-3.4911-2.4374-0.44478-0.53285-0.92606-1.3078-1.1776-1.8962-0.29236-0.68387-0.53271-1.4938-0.57491-1.9372-0.0050728-0.053301-0.014538-0.13083-0.021035-0.17229-0.065192-0.41602-0.074641-1.3228-0.020758-1.9921 0.02018-0.25063 0.094258-0.69214 0.15899-0.94757 0.2811-1.1093 0.81597-2.2066 1.4801-3.0365 0.24093-0.30107 1.0111-1.084 1.2794-1.3005 1.0695-0.8632 2.3608-1.4453 3.7041-1.6696 0.18344-0.03064 0.41105-0.060638 0.50581-0.066661 0.21361-0.013578 1.4898-0.013177 1.6367 5.1497e-4 0.24665 0.022992 0.31395 0.031949 0.5707 0.07595 1.2053 0.20657 2.6355 0.85699 3.5968 1.6358 0.27255 0.22081 0.79328 0.72527 1.0505 1.0177 0.64633 0.73472 1.2134 1.7232 1.5468 2.6961 0.12502 0.36489 0.26808 0.93448 0.3005 1.1965 0.0051 0.041457 0.01952 0.14321 0.03198 0.22613 0.03724 0.24792 0.04221 0.37756 0.04215 1.0983-8.6e-5 0.88909-0.0018 0.91028-0.12128 1.529-0.13743 0.71151-0.34827 1.3171-0.70968 2.0383-0.60318 1.2037-1.5529 2.2806-2.6688 3.026-0.93068 0.62171-1.8467 1.0011-2.9612 1.2265-0.29575 0.05981-0.28525 0.0581-0.59223 0.09627-0.16741 0.02083-1.5287 0.04466-1.547 0.0271zm1.3962-0.42228c0.047378-0.0067 0.13944-0.01791 0.20459-0.02498 0.83486-0.09056 1.7094-0.3612 2.527-0.78206 0.77835-0.40065 1.292-0.78589 1.964-1.4731 0.64298-0.65749 0.966-1.1183 1.3792-1.9674 0.31768-0.65282 0.48747-1.1597 0.62109-1.8542 0.08426-0.43797 0.09795-0.66133 0.09943-1.6238 9.72e-4 -0.63377-0.002588-0.69998-0.054761-1.0068-0.22309-1.3134-0.77083-2.5623-1.5271-3.4818-0.76695-0.93248-1.5891-1.6066-2.5438-2.0858-0.58307-0.29264-1.599-0.62739-2.1098-0.69516-0.059224-0.0078582-0.13191-0.01775-0.16152-0.021981-0.53147-0.075945-1.5371-0.085742-2.1751-0.02119-0.50013 0.050599-1.2466 0.24715-1.8413 0.48487-0.62855 0.25122-1.408 0.70389-1.9057 1.1067-0.37071 0.30005-1.0549 1.0091-1.3371 1.3857-0.52919 0.70619-0.97967 1.6117-1.2032 2.4185-0.068224 0.2463-0.18838 0.80599-0.20458 0.95292-0.0055635 0.05047-0.019106 0.14506-0.030093 0.21021-0.028347 0.16807-0.035174 0.34858-0.03543 0.93681-2.1622e-4 0.49647 0.020432 0.98668 0.043106 1.0234 0.005945 0.00962 0.015833 0.06796 0.021973 0.12964 0.036159 0.36326 0.21802 1.0664 0.3987 1.5416 0.27532 0.72402 0.67207 1.4186 1.1548 2.0218 0.23743 0.29665 0.93716 0.99836 1.2279 1.2314 0.76834 0.61578 1.8678 1.1594 2.8387 1.4037 0.17371 0.0437 0.59699 0.12645 0.65684 0.12841 0.017768 5.79e-4 0.095295 0.01091 0.17229 0.02295 0.07699 0.01204 0.2173 0.0278 0.31181 0.03503 0.094503 0.0072 0.17602 0.01731 0.18114 0.02244 0.013143 0.01315 1.2223-3e-3 1.3268-0.01777z" fill="#424242"/>
 </g>
</svg>
